<svg width="105" height="106" viewBox="0 0 105 106" fill="none" xmlns="http://www.w3.org/2000/svg">
<path d="M34.125 8.83337H70.875C84.875 8.83337 96.25 20.3167 96.25 34.45V71.55C96.25 78.344 93.5766 84.8597 88.8178 89.6638C84.0591 94.4678 77.6049 97.1667 70.875 97.1667H34.125C20.125 97.1667 8.75 85.6834 8.75 71.55V34.45C8.75 27.6561 11.4234 21.1404 16.1822 16.3363C20.9409 11.5323 27.3951 8.83337 34.125 8.83337ZM33.25 17.6667C29.0728 17.6667 25.0668 19.3419 22.1131 22.3237C19.1594 25.3055 17.5 29.3498 17.5 33.5667V72.4334C17.5 81.2225 24.5437 88.3334 33.25 88.3334H71.75C75.9272 88.3334 79.9332 86.6582 82.8869 83.6764C85.8406 80.6946 87.5 76.6503 87.5 72.4334V33.5667C87.5 24.7775 80.4562 17.6667 71.75 17.6667H33.25ZM75.4688 24.2917C76.9192 24.2917 78.3102 24.8734 79.3357 25.9087C80.3613 26.9441 80.9375 28.3483 80.9375 29.8125C80.9375 31.2768 80.3613 32.681 79.3357 33.7164C78.3102 34.7517 76.9192 35.3334 75.4688 35.3334C74.0183 35.3334 72.6273 34.7517 71.6018 33.7164C70.5762 32.681 70 31.2768 70 29.8125C70 28.3483 70.5762 26.9441 71.6018 25.9087C72.6273 24.8734 74.0183 24.2917 75.4688 24.2917ZM52.5 30.9167C58.3016 30.9167 63.8656 33.2433 67.968 37.3848C72.0703 41.5262 74.375 47.1432 74.375 53C74.375 58.8569 72.0703 64.4739 67.968 68.6153C63.8656 72.7567 58.3016 75.0834 52.5 75.0834C46.6984 75.0834 41.1344 72.7567 37.032 68.6153C32.9297 64.4739 30.625 58.8569 30.625 53C30.625 47.1432 32.9297 41.5262 37.032 37.3848C41.1344 33.2433 46.6984 30.9167 52.5 30.9167ZM52.5 39.75C49.019 39.75 45.6806 41.146 43.2192 43.6309C40.7578 46.1157 39.375 49.4859 39.375 53C39.375 56.5142 40.7578 59.8844 43.2192 62.3692C45.6806 64.8541 49.019 66.25 52.5 66.25C55.981 66.25 59.3194 64.8541 61.7808 62.3692C64.2422 59.8844 65.625 56.5142 65.625 53C65.625 49.4859 64.2422 46.1157 61.7808 43.6309C59.3194 41.146 55.981 39.75 52.5 39.75Z" fill="black"/>
</svg>
