<svg width="90" height="85" viewBox="0 0 90 85" fill="none" xmlns="http://www.w3.org/2000/svg">
<path d="M90 42.5C90 53.7717 85.2589 64.5817 76.8198 72.552C68.3807 80.5223 56.9347 85 45 85C39.0905 85 33.2389 83.9007 27.7792 81.7649C22.3196 79.6291 17.3588 76.4985 13.1802 72.552C4.74106 64.5817 0 53.7717 0 42.5C0 31.2283 4.74106 20.4183 13.1802 12.448C21.6193 4.47767 33.0653 0 45 0C50.9095 0 56.7611 1.0993 62.2208 3.23512C67.6804 5.37094 72.6412 8.50147 76.8198 12.448C80.9984 16.3945 84.3131 21.0796 86.5746 26.236C88.836 31.3923 90 36.9188 90 42.5ZM54 21.25L31.5 42.5L54 63.75V21.25Z" fill="#FF6000"/>
</svg>
