<svg width="81" height="90" viewBox="0 0 81 90" fill="none" xmlns="http://www.w3.org/2000/svg">
<path d="M40.5 18.6208C36.6691 18.6208 32.9242 19.6219 29.7388 21.4975C26.5535 23.3731 24.0709 26.0389 22.6049 29.1579C21.1388 32.2768 20.7552 35.7089 21.5026 39.02C22.25 42.331 24.0948 45.3725 26.8036 47.7596C29.5125 50.1468 32.9639 51.7725 36.7212 52.4311C40.4785 53.0897 44.3731 52.7517 47.9124 51.4597C51.4517 50.1678 54.4768 47.98 56.6052 45.173C58.7336 42.366 59.8696 39.0659 59.8696 35.6899C59.8637 31.1645 57.8212 26.8259 54.1899 23.6259C50.5587 20.426 45.6353 18.626 40.5 18.6208ZM40.5 43.4486C38.7587 43.4486 37.0564 42.9936 35.6086 42.1411C34.1607 41.2885 33.0322 40.0768 32.3658 38.6591C31.6995 37.2413 31.5251 35.6813 31.8648 34.1763C32.2045 32.6713 33.0431 31.2888 34.2744 30.2037C35.5057 29.1187 37.0745 28.3797 38.7824 28.0803C40.4902 27.781 42.2605 27.9346 43.8693 28.5219C45.4781 29.1091 46.8531 30.1035 47.8205 31.3794C48.788 32.6554 49.3043 34.1554 49.3043 35.6899C49.3043 37.7477 48.3768 39.7211 46.7256 41.1762C45.0745 42.6312 42.8351 43.4486 40.5 43.4486ZM40.5 0C29.7623 0.0102685 19.4677 3.77375 11.875 10.4647C4.28235 17.1556 0.0116524 26.2275 0 35.6899C0 65.7005 35.9394 88.2162 37.4713 89.1589C38.3591 89.7064 39.4164 90 40.5 90C41.5836 90 42.6409 89.7064 43.5287 89.1589C50.3356 84.7381 56.5634 79.6638 62.0971 74.0295C74.4628 61.5147 81 48.2474 81 35.6899C80.9883 26.2275 76.7177 17.1556 69.125 10.4647C61.5323 3.77375 51.2377 0.0102685 40.5 0ZM54.2788 67.776C50.0815 72.0247 45.471 75.9422 40.5 79.4838C35.529 75.9422 30.9185 72.0247 26.7212 67.776C19.3696 60.2733 10.5652 48.612 10.5652 35.6899C10.5652 28.6937 13.7191 21.9839 19.3329 17.0368C24.9468 12.0897 32.5608 9.31042 40.5 9.31042C48.4392 9.31042 56.0532 12.0897 61.6671 17.0368C67.281 21.9839 70.4348 28.6937 70.4348 35.6899C70.4348 48.612 61.6304 60.2733 54.2788 67.776Z" fill="black"/>
</svg>
