<svg width="98" height="86" viewBox="0 0 98 86" fill="none" xmlns="http://www.w3.org/2000/svg">
<path d="M49 43C42.2625 43 36.4948 40.8948 31.6969 36.6844C26.899 32.474 24.5 27.4125 24.5 21.5C24.5 15.5875 26.899 10.526 31.6969 6.31563C36.4948 2.10521 42.2625 0 49 0C55.7375 0 61.5052 2.10521 66.3031 6.31563C71.101 10.526 73.5 15.5875 73.5 21.5C73.5 27.4125 71.101 32.474 66.3031 36.6844C61.5052 40.8948 55.7375 43 49 43ZM85.75 86H12.25C8.88126 86 5.99638 84.9465 3.59538 82.8395C1.19438 80.7325 -0.00407293 78.2027 1.0399e-05 75.25V70.95C1.0399e-05 67.9042 0.894261 65.1038 2.68276 62.5489C4.47126 59.994 6.84367 58.0464 9.80001 56.7062C16.1292 53.9292 22.5604 51.8455 29.0938 50.4551C35.6271 49.0648 42.2625 48.3714 49 48.375C55.7375 48.375 62.3729 49.0702 68.9062 50.4605C75.4396 51.8508 81.8708 53.9327 88.2 56.7062C91.1604 58.05 93.5349 59.9993 95.3234 62.5542C97.1119 65.1092 98.0041 67.9077 98 70.95V75.25C98 78.2062 96.7995 80.7379 94.3985 82.8449C91.9975 84.9519 89.1147 86.0036 85.75 86ZM12.25 75.25H85.75V70.95C85.75 69.9646 85.4682 69.0687 84.9047 68.2625C84.3412 67.4562 83.6022 66.8292 82.6875 66.3812C77.175 63.9625 71.6115 62.1493 65.9969 60.9417C60.3823 59.7342 54.7167 59.1286 49 59.125C43.2833 59.125 37.6177 59.7306 32.0031 60.9417C26.3885 62.1529 20.825 63.9661 15.3125 66.3812C14.3938 66.8292 13.6526 67.4562 13.0891 68.2625C12.5256 69.0687 12.2459 69.9646 12.25 70.95V75.25ZM49 32.25C52.3687 32.25 55.2536 31.1965 57.6546 29.0895C60.0556 26.9825 61.2541 24.4527 61.25 21.5C61.25 18.5437 60.0495 16.0121 57.6485 13.9051C55.2475 11.7981 52.3647 10.7464 49 10.75C45.6313 10.75 42.7464 11.8035 40.3454 13.9105C37.9444 16.0175 36.7459 18.5473 36.75 21.5C36.75 24.4562 37.9505 26.9879 40.3515 29.0949C42.7525 31.2019 45.6353 32.2536 49 32.25Z" fill="black"/>
</svg>
