<svg width="47" height="48" viewBox="0 0 47 48" fill="none" xmlns="http://www.w3.org/2000/svg">
<path d="M22.0915 38.7843L39.4715 21.0346C36.5474 19.7878 33.8918 17.9661 31.6557 15.6732C29.4095 13.389 27.625 10.676 26.4036 7.68865L9.02367 25.4384C7.66777 26.8232 6.98864 27.5167 6.40586 28.2799C5.71759 29.1805 5.12741 30.1551 4.64577 31.1862C4.23924 32.0598 3.9361 32.9909 3.32982 34.8485L0.129235 44.6473C-0.0180726 45.096 -0.0399279 45.5777 0.0661251 46.0384C0.172178 46.499 0.401935 46.9203 0.729571 47.2549C1.05721 47.5895 1.46973 47.8242 1.92078 47.9325C2.37183 48.0408 2.84351 48.0185 3.28282 47.868L12.8775 44.5993C14.6987 43.9802 15.6081 43.6706 16.4635 43.2554C17.474 42.7634 18.428 42.161 19.3092 41.4578C20.0565 40.8627 20.7356 40.1691 22.0915 38.7843ZM44.2936 16.11C46.0265 14.3402 47 11.9398 47 9.43699C47 6.93415 46.0265 4.53381 44.2936 2.76403C42.5606 0.994252 40.2103 1.86477e-08 37.7596 0C35.3089 -1.86477e-08 32.9586 0.994252 31.2257 2.76403L29.1413 4.89275L29.2306 5.15915C30.2578 8.16076 31.9387 10.8851 34.1466 13.1269C36.4073 15.4493 39.1683 17.1998 42.2092 18.2387L44.2936 16.11Z" fill="#060606"/>
</svg>
