<svg width="90" height="85" viewBox="0 0 90 85" fill="none" xmlns="http://www.w3.org/2000/svg">
<path d="M0 42.5C0 53.7717 4.74105 64.5817 13.1802 72.552C21.6193 80.5223 33.0653 85 45 85C50.9095 85 56.7611 83.9007 62.2208 81.7649C67.6804 79.6291 72.6412 76.4985 76.8198 72.552C85.2589 64.5817 90 53.7717 90 42.5C90 31.2283 85.2589 20.4183 76.8198 12.448C68.3807 4.47767 56.9347 0 45 0C39.0905 0 33.2389 1.0993 27.7792 3.23512C22.3196 5.37094 17.3588 8.50147 13.1802 12.448C9.00156 16.3945 5.68687 21.0796 3.42542 26.236C1.16396 31.3923 0 36.9188 0 42.5ZM36 21.25L58.5 42.5L36 63.75V21.25Z" fill="#FF6000"/>
</svg>
