<svg width="75" height="75" viewBox="0 0 75 75" fill="none" xmlns="http://www.w3.org/2000/svg">
<path d="M74.3168 70.9971L51.6192 48.0773C55.8496 42.9921 58.3993 36.4498 58.3993 29.3061C58.3993 13.1209 45.3261 0 29.1997 0C13.0733 0 0 13.1209 0 29.3061C0 45.4913 13.0733 58.6123 29.1997 58.6123C36.5265 58.6123 43.219 55.8973 48.3465 51.4217L71.0124 74.3133C71.9246 75.2289 73.4045 75.2289 74.3167 74.3133C75.2278 73.3978 75.2278 71.9137 74.3167 70.9971H74.3168ZM29.1997 53.962C15.6323 53.962 4.6334 42.9229 4.6334 29.3061C4.6334 15.6893 15.6323 4.6503 29.1997 4.6503C42.767 4.6503 53.7659 15.6893 53.7659 29.3061C53.7659 42.9229 42.767 53.962 29.1997 53.962Z" fill="#252525"/>
</svg>
