<svg width="90" height="90" viewBox="0 0 90 90" fill="none" xmlns="http://www.w3.org/2000/svg">
<path d="M88.1038 79.0114C89.3111 80.2186 89.9893 81.8558 89.9893 83.563C89.9893 85.2702 89.3111 86.9075 88.1038 88.1146C86.8966 89.3218 85.2592 90 83.5519 90C81.8446 90 80.2073 89.3218 79 88.1146L45 54.1059L10.9893 88.1039C9.78202 89.3111 8.14466 89.9893 6.43736 89.9893C4.73007 89.9893 3.0927 89.3111 1.88546 88.1039C0.678221 86.8968 1.79893e-08 85.2595 0 83.5523C-1.79893e-08 81.8451 0.678221 80.2078 1.88546 79.0007L35.8962 45.0027L1.89617 10.994C0.688929 9.78679 0.0107106 8.14952 0.0107106 6.44233C0.0107106 4.73514 0.688929 3.09787 1.89617 1.8907C3.10341 0.683534 4.74078 0.00535398 6.44807 0.00535396C8.15536 0.00535394 9.79273 0.683534 11 1.8907L45 35.8994L79.0107 1.88535C80.218 0.678178 81.8553 -2.84418e-08 83.5626 0C85.2699 2.84418e-08 86.9073 0.678178 88.1145 1.88535C89.3218 3.09251 90 4.72978 90 6.43698C90 8.14417 89.3218 9.78144 88.1145 10.9886L54.1038 45.0027L88.1038 79.0114Z" fill="black"/>
</svg>
