<svg width="125" height="126" viewBox="0 0 125 126" fill="none" xmlns="http://www.w3.org/2000/svg">
<path d="M52.0827 78.75L79.1139 63L52.0827 47.25V78.75ZM112.291 37.6425C112.968 40.11 113.437 43.4175 113.749 47.6175C114.114 51.8175 114.27 55.44 114.27 58.59L114.583 63C114.583 74.4975 113.749 82.95 112.291 88.3575C110.989 93.0825 107.968 96.1275 103.281 97.44C100.833 98.1225 96.3535 98.595 89.4785 98.91C82.7077 99.2775 76.5098 99.435 70.7806 99.435L62.4994 99.75C40.6764 99.75 27.0827 98.91 21.7181 97.44C17.0306 96.1275 14.0098 93.0825 12.7077 88.3575C12.0306 85.89 11.5618 82.5825 11.2493 78.3825C10.8848 74.1825 10.7285 70.56 10.7285 67.41L10.416 63C10.416 51.5025 11.2493 43.05 12.7077 37.6425C14.0098 32.9175 17.0306 29.8725 21.7181 28.56C24.166 27.8775 28.6452 27.405 35.5202 27.09C42.291 26.7225 48.4889 26.565 54.2181 26.565L62.4994 26.25C84.3223 26.25 97.916 27.09 103.281 28.56C107.968 29.8725 110.989 32.9175 112.291 37.6425Z" fill="black"/>
</svg>
